<?xml version="1.0" encoding="UTF-8"?>
<svg id="Layer_2" data-name="Layer 2" xmlns="http://www.w3.org/2000/svg" xmlns:xlink="http://www.w3.org/1999/xlink" viewBox="0 0 450 89.12">
  <defs>
    <style>
      .cls-1 {
        fill: url(#linear-gradient-2);
      }

      .cls-2 {
        fill: url(#linear-gradient);
      }

      .cls-3 {
        fill: #414042;
      }
    </style>
    <linearGradient id="linear-gradient" x1="0" y1="44.56" x2="89.12" y2="44.56" gradientUnits="userSpaceOnUse">
      <stop offset="0" stop-color="#64d9c2"/>
      <stop offset=".5" stop-color="#8860eb"/>
      <stop offset="1" stop-color="#c7b8ff"/>
    </linearGradient>
    <linearGradient id="linear-gradient-2" x1="28.74" y1="25.19" x2="44.8" y2="68.99" xlink:href="#linear-gradient"/>
  </defs>
  <g id="Layer_1-2" data-name="Layer 1">
    <g>
      <g>
        <rect class="cls-3" x="140.36" y="34.44" width="5.4" height="31.86"/>
        <path class="cls-3" d="m167.3,33.63c13.95-.49,20.93,18.56,11.12,27.92-6.01,6.67-18.15,6.43-22.86-1.4v6.15h-5.4V22.82h5.4v16.95c2.69-4.1,6.6-6.15,11.74-6.15Zm-.68,27.45c14.35.42,14.35-22.66,0-22.24-14.43-.46-14.43,22.7,0,22.24Z"/>
        <path class="cls-3" d="m191.15,40.46c1.78-3.85,5.01-6.02,9.69-6.02v5.65c-13.48-1.41-8.99,18.3-9.69,26.2h-5.4v-31.86h5.4v6.02Z"/>
        <path class="cls-3" d="m226.43,34.44h5.4v31.86h-5.4v-6.14c-7.94,12.59-28.45,4.15-27.45-10.19-.99-14.33,19.52-22.78,27.45-10.19v-5.34Zm-11.06,26.65c14.43.46,14.43-22.7,0-22.24-14.35-.42-14.35,22.66,0,22.24Z"/>
        <path class="cls-3" d="m251.77,34.44c3.64,0,6.56,1.15,8.76,3.45,2.19,2.3,3.29,5.41,3.29,9.35v19.07h-5.4v-18.76c0-2.53-.68-4.48-2.05-5.87-1.37-1.39-3.25-2.08-5.65-2.08-2.69,0-4.87.84-6.52,2.52-1.66,1.68-2.48,4.25-2.48,7.73v16.46h-5.4v-31.87h5.4v5.28c2.19-3.52,5.55-5.28,10.06-5.28Z"/>
        <path class="cls-3" d="m284.51,39.65h-8.26v17.35c0,1.53.3,2.62.9,3.26.6.64,1.52.97,2.76.99,1.24.02,2.77,0,4.6-.09v4.85c-4.72.62-8.18.24-10.37-1.15-2.2-1.39-3.29-4.01-3.29-7.86v-17.35h-6.15v-5.22h6.15v-6.56l5.4-.02v6.58h8.26v5.22Z"/>
        <path class="cls-3" d="m335.9,22.82v43.48h-5.72v-33.98l-14.22,23.67-.71-.03-14.26-23.67v34.01h-5.78V22.82h6.52l13.91,23.08,13.8-23.08h6.45Z"/>
        <path class="cls-3" d="m344.72,52.45c.54,2.77,1.81,4.93,3.82,6.46,2.01,1.53,4.48,2.3,7.42,2.3,4.1,0,7.08-1.51,8.94-4.53l4.6,2.61c-3.02,4.68-7.58,7.02-13.66,7.02-4.93,0-8.93-1.54-12.02-4.63-3.09-3.08-4.63-6.99-4.63-11.71s1.51-8.57,4.54-11.68c3.02-3.11,6.93-4.66,11.74-4.66,4.55,0,8.27,1.61,11.15,4.81,2.88,3.21,4.32,7.07,4.32,11.58,0,.79-.06,1.59-.19,2.42h-26.03Zm10.75-13.73c-2.9,0-5.3.82-7.21,2.45-1.91,1.64-3.09,3.82-3.54,6.55h20.75c-.46-2.94-1.62-5.18-3.48-6.71-1.86-1.53-4.04-2.3-6.52-2.3Z"/>
        <path class="cls-3" d="m399.07,22.82h5.4v43.48h-5.4v-6.15c-2.69,4.1-6.61,6.15-11.74,6.15-4.35,0-8.05-1.58-11.12-4.75-3.06-3.17-4.6-7.03-4.6-11.58s1.53-8.42,4.6-11.58c3.06-3.17,6.77-4.75,11.12-4.75,5.13,0,9.05,2.05,11.74,6.15v-16.96Zm-11.06,38.26c3.15,0,5.78-1.07,7.89-3.2,2.11-2.13,3.17-4.77,3.17-7.92s-1.06-5.79-3.17-7.92c-2.11-2.13-4.74-3.2-7.89-3.2s-5.72,1.07-7.83,3.2c-2.11,2.13-3.17,4.77-3.17,7.92s1.06,5.79,3.17,7.92c2.11,2.13,4.72,3.2,7.83,3.2Z"/>
        <rect class="cls-3" x="408.94" y="34.44" width="5.4" height="31.86"/>
        <path class="cls-3" d="m444.6,34.44h5.4v31.87h-5.4v-6.15c-2.69,4.1-6.61,6.15-11.74,6.15-4.35,0-8.05-1.58-11.12-4.75-3.06-3.17-4.6-7.03-4.6-11.58s1.53-8.42,4.6-11.58c3.06-3.17,6.77-4.75,11.12-4.75,5.13,0,9.05,2.05,11.74,6.15v-5.34Zm-11.06,26.65c3.15,0,5.78-1.07,7.89-3.2,2.11-2.13,3.17-4.77,3.17-7.92s-1.06-5.79-3.17-7.92c-2.11-2.13-4.74-3.2-7.89-3.2s-5.72,1.07-7.83,3.2c-2.11,2.13-3.17,4.77-3.17,7.92s1.06,5.79,3.17,7.92c2.11,2.13,4.72,3.2,7.83,3.2Z"/>
        <path class="cls-3" d="m130.99,22.82l-12.55,36.25,2.51,7.23h.72l15.59-43.48h-6.27Z"/>
        <polygon class="cls-3" points="120.95 66.3 115.15 66.3 99.62 22.82 105.83 22.82 118.45 59.07 120.95 66.3"/>
        <circle class="cls-3" cx="143.06" cy="28.64" r="3.64"/>
        <circle class="cls-3" cx="411.64" cy="28.64" r="3.64"/>
      </g>
      <g>
        <path class="cls-2" d="m44.56,89.12C19.99,89.12,0,69.13,0,44.56S19.99,0,44.56,0s44.56,19.99,44.56,44.56-19.99,44.56-44.56,44.56Zm0-85.62C21.92,3.5,3.5,21.92,3.5,44.56s18.42,41.06,41.06,41.06,41.06-18.42,41.06-41.06S67.2,3.5,44.56,3.5Z"/>
        <g>
          <path class="cls-3" d="m57.11,24.92l-12.55,36.25,2.51,7.23h.72l15.59-43.48h-6.27Z"/>
          <polygon class="cls-1" points="47.07 68.4 41.27 68.4 25.74 24.92 31.95 24.92 44.57 61.18 47.07 68.4"/>
        </g>
      </g>
    </g>
  </g>
</svg>